<svg width="522" height="686" viewBox="0 0 522 686" fill="none" xmlns="http://www.w3.org/2000/svg">
<path d="M0 562.232V248.882C0 247.473 0.119116 246.066 0.356075 244.677L11.0347 182.085C11.344 180.272 11.8522 178.499 12.5504 176.798L39 112.345L59.802 75.3703C63.9761 67.951 64.088 58.9177 60.099 51.3973L57.9146 47.2792C56.0007 43.671 55 39.6488 55 35.5644V25C55 11.1929 66.1929 0 80 0H444C457.807 0 469 11.1929 469 25V56.5237C469 61.0653 470.237 65.5211 472.579 69.4126L486.488 92.5302C487.162 93.6496 487.746 94.8201 488.237 96.0309L520.17 174.842C521.379 177.824 522 181.012 522 184.23V246.764V563.556C522 570.667 518.971 577.443 513.672 582.185L511.828 583.835C506.529 588.578 503.5 595.353 503.5 602.464V635.987C503.5 647.835 495.183 658.057 483.582 660.465L365.514 684.978C363.842 685.325 362.14 685.5 360.432 685.5H168.068C166.36 685.5 164.658 685.325 162.986 684.978L44.9179 660.465C33.317 658.057 25 647.835 25 635.987V587.232C25 580.328 19.4036 574.732 12.5 574.732C5.59644 574.732 0 569.136 0 562.232Z" fill="#D9D9D9"/>
</svg>
