<svg width="522" height="870" viewBox="0 0 522 870" fill="none" xmlns="http://www.w3.org/2000/svg">
<path fill-rule="evenodd" clip-rule="evenodd" d="M0 313V716.5C0 723.404 5.59644 729 12.5 729C19.4036 729 25 734.596 25 741.5V813.231C25 824.586 32.6527 834.515 43.6334 837.407L162.37 868.676C164.448 869.223 166.588 869.5 168.737 869.5H359.763C361.912 869.5 364.052 869.223 366.13 868.676L484.867 837.407C495.847 834.515 503.5 824.586 503.5 813.231V759.441C503.5 753.357 505.719 747.481 509.741 742.916L515.759 736.084C519.781 731.519 522 725.643 522 719.559V313V231.396C522 228.814 521.6 226.248 520.814 223.789L487.5 119.5L471.412 85.5857C469.824 82.2371 469 78.5773 469 74.8711V25C469 11.1929 457.807 0 444 0H80C66.1929 0 55 11.1929 55 25V47.9832C55 51.2947 55.6579 54.5732 56.9355 57.6284L62.3448 70.5637C64.9971 76.9061 64.9206 84.0609 62.1332 90.3452L39 142.5L12.1914 225.363C11.7314 226.785 11.3998 228.245 11.2006 229.726L0 313ZM114.719 105.309L134.1 142.947C140.405 155.193 156.913 157.548 166.392 147.554L187.511 125.287C191.035 121.571 193 116.645 193 111.524V84.5C193 73.4543 184.046 64.5 173 64.5H132.5C121.454 64.5 112.5 73.4543 112.5 84.5V96.1532C112.5 99.3383 113.261 102.477 114.719 105.309Z" fill="#D9D9D9"/>
</svg>
