<svg width="575" height="1171" viewBox="0 0 575 1171" fill="none" xmlns="http://www.w3.org/2000/svg">
<path fill-rule="evenodd" clip-rule="evenodd" d="M1.15488 292.79L50.2853 68.1821C55.6533 43.6413 78.3967 26.8935 103.425 29.0512L186.242 36.1908H201.946C214.53 36.1908 226.081 29.2254 231.953 18.0954C237.825 6.96537 249.375 0 261.96 0H473.809C499.89 0 521.59 20.0473 523.652 46.0469L531.2 141.213C531.4 143.734 531.791 146.236 532.369 148.698L562.343 276.247L574.422 359.555C574.807 362.207 574.977 364.886 574.933 367.566L562.837 1090.54C562.532 1108.76 552.34 1125.37 536.236 1133.9L502.417 1151.8C496.617 1154.87 490.27 1156.77 483.737 1157.39L339.937 1171H189.816C187.436 1171 185.06 1170.83 182.705 1170.49L92.8039 1157.57C87.623 1156.83 82.591 1155.28 77.8919 1152.97L35.8278 1132.33C20.2967 1124.71 9.80788 1109.61 8.09627 1092.39L0 1010.96V307.163V303.474C0 299.882 0.387196 296.3 1.15488 292.79ZM143 144.5V170.724C143 174.81 144.252 178.798 146.586 182.151L157.733 198.161C164.543 207.944 178.346 209.635 187.317 201.786L200.836 189.956C201.942 188.988 202.938 187.901 203.806 186.715L229.155 152.072C231.328 149.101 232.5 145.516 232.5 141.835C232.5 132.261 224.739 124.5 215.165 124.5H163C151.954 124.5 143 133.454 143 144.5Z" fill="#FF0000"/>
</svg>
