<svg width="575" height="1190" viewBox="0 0 575 1190" fill="none" xmlns="http://www.w3.org/2000/svg">
<path d="M186.242 25.75C186.242 11.8048 174.937 0.5 160.992 0.5H104.904C71.2034 0.5 47.1538 33.1615 57.1585 65.3433L61.3926 78.9629C65.0062 90.5867 64.2554 103.13 59.2809 114.239L37 164L10.8491 250L0.641576 313.104C0.214547 315.743 0 318.413 0 321.088V326.163V1029.96L8.09627 1111.39C9.80788 1128.61 20.2967 1143.71 35.8278 1151.33L77.8919 1171.97C82.591 1174.28 87.623 1175.83 92.8039 1176.57L182.705 1189.49C185.06 1189.83 187.436 1190 189.816 1190H339.937L483.737 1176.39C490.27 1175.77 496.617 1173.87 502.417 1170.8L536.236 1152.9C552.34 1144.37 562.532 1127.76 562.837 1109.54L575 382.54V321.746C575 318.635 574.71 315.531 574.133 312.474L563.403 255.617C562.698 251.885 561.571 248.244 560.042 244.767L519.964 153.605C518.327 149.882 516.243 146.373 513.756 143.155L503.639 130.062C491.42 114.249 489.856 92.5588 499.562 75.089V75.089C518.076 41.7625 494.148 0.5 456.024 0.5H400.25C386.305 0.5 375 11.8048 375 25.75V25.75C375 39.6952 363.695 51 349.75 51H211.492C197.547 51 186.242 39.6952 186.242 25.75V25.75Z" fill="#FF0000"/>
</svg>
