<svg width="607" height="1306" viewBox="0 0 607 1306" fill="none" xmlns="http://www.w3.org/2000/svg">
<path fill-rule="evenodd" clip-rule="evenodd" d="M62.9906 86.8748V50.5C62.9906 22.8858 85.3763 0.5 112.991 0.5H225.5H487.268C507.705 0.5 526.085 12.9379 533.684 31.9101L546.699 64.406C548.187 68.1219 549.224 72.0031 549.786 75.9662L574.5 250L593.638 361.581L606.422 449.733C606.807 452.386 606.977 455.066 606.933 457.746L594.133 1222.72C593.828 1240.94 583.635 1257.55 567.529 1266.07L529.888 1285.99C524.088 1289.06 517.742 1290.96 511.209 1291.58L358.855 1306H200.18C197.801 1306 195.425 1305.83 193.07 1305.49L97.5327 1291.77C92.3522 1291.02 87.3207 1289.47 82.622 1287.16L36.4334 1264.51C20.9012 1256.89 10.4115 1241.78 8.69954 1224.56L0 1137.08V394.213V384.615L10.8885 230.963C11.2624 225.688 12.4707 220.505 14.4685 215.609L59.2856 105.763C61.7322 99.7665 62.9906 93.3515 62.9906 86.8748ZM125 94V145.189C125 148.669 125.908 152.09 127.635 155.111L138.525 174.169C144.216 184.129 157.1 187.271 166.737 181.049L184.264 169.735C187.044 167.94 189.336 165.483 190.933 162.584L201.034 144.253C201.676 143.087 202.201 141.86 202.599 140.59L215.343 99.9893C219.387 87.1058 209.764 74 196.261 74H145C133.954 74 125 82.9543 125 94Z" fill="#FF0000"/>
</svg>
