<svg width="607" height="1437" viewBox="0 0 607 1437" fill="none" xmlns="http://www.w3.org/2000/svg">
<path fill-rule="evenodd" clip-rule="evenodd" d="M62.9906 96.8624V50C62.9906 22.3858 85.3763 0 112.991 0H225.5H486.094C507.113 0 525.889 13.1464 533.078 32.8984L547.63 72.8767C548.501 75.2714 549.189 77.7292 549.686 80.2287L573 197.5L593.638 326L607 498.697L594.068 1349.12C593.801 1366.65 584.38 1382.75 569.237 1391.57L530.394 1414.19C524.271 1417.76 517.459 1419.98 510.41 1420.72L358.855 1436.5H200.534C197.92 1436.5 195.31 1436.29 192.728 1435.89L98.1451 1420.94C92.5646 1420.05 87.174 1418.23 82.2023 1415.55L35.0832 1390.11C20.3264 1382.15 10.5452 1367.32 9.03592 1350.62L0 1250.63V433.22V422.659V341.5L10.752 250.742C11.2176 246.812 12.148 242.952 13.5238 239.241L59.8715 114.246C61.9344 108.682 62.9906 102.796 62.9906 96.8624ZM131 99V147.127C131 150.707 131.961 154.221 133.782 157.302L144.453 175.359C150.169 185.032 162.73 188.099 172.261 182.149L189.893 171.143C192.705 169.388 195.037 166.96 196.679 164.08L206.595 146.678C207.269 145.495 207.821 144.246 208.241 142.951L220.504 105.175C224.698 92.2536 215.066 79 201.481 79H151C139.954 79 131 87.9543 131 99Z" fill="#FF0000"/>
</svg>
