<svg width="575" height="1173" viewBox="0 0 575 1173" fill="#fff" xmlns="http://www.w3.org/2000/svg">
<path d="M50.2853 70.1821L1.15488 294.79C0.387196 298.3 0 301.882 0 305.474V309.163V1012.96L8.09627 1094.39C9.80788 1111.61 20.2967 1126.71 35.8278 1134.33L77.8919 1154.97C82.591 1157.28 87.623 1158.83 92.804 1159.57L182.705 1172.49C185.06 1172.83 187.436 1173 189.816 1173H339.937L483.737 1159.39C490.27 1158.77 496.617 1156.87 502.417 1153.8L536.236 1135.9C552.34 1127.37 562.532 1110.76 562.837 1092.54L574.933 369.566C574.977 366.886 574.807 364.207 574.422 361.554L562.892 282.037C562.526 279.514 561.968 277.022 561.222 274.584L513.231 117.714C512.222 114.416 511.557 111.022 511.247 107.587L506.602 56.1973C504.351 31.2954 484.051 11.8844 459.074 10.7499L241.914 0.886118C231.286 0.403371 222.406 8.88974 222.406 19.5288C222.406 29.8355 214.05 38.1907 203.744 38.1907H186.242L103.425 31.0511C78.3967 28.8935 55.6533 45.6413 50.2853 70.1821Z" fill="#FF0000"/>
</svg>
